<svg width="150" height="29" viewBox="0 0 150 29" fill="none" xmlns="http://www.w3.org/2000/svg">
<mask id="mask0_409_770" style="mask-type:alpha" maskUnits="userSpaceOnUse" x="0" y="0" width="150" height="29">
<g clip-path="url(#clip0_409_770)">
<path d="M0 0.651855H10.9969C13.0915 0.651855 14.6625 1.17552 15.8262 2.04829C17.1063 3.09561 17.8045 4.60841 17.8045 6.47032C17.8045 8.62315 16.9317 9.9614 15.1862 10.776V10.8924C17.5136 11.6488 18.8518 13.7434 18.8518 16.2453C18.8518 18.6309 17.9209 20.4928 16.4081 21.6565C15.128 22.5875 13.4988 22.9948 11.2878 22.9948H0V0.651855ZM9.89139 9.37955C11.0551 9.37955 11.9279 8.73952 11.9279 7.40127C11.9279 6.12121 11.0551 5.48118 9.8332 5.48118H6.0512V9.32137H9.89139V9.37955ZM10.415 18.0491C11.7533 18.0491 12.7424 17.2345 12.7424 15.7799C12.7424 14.2089 11.6951 13.5107 10.415 13.5107H6.10939V18.1072H10.415V18.0491Z" fill="black"/>
<path d="M19.841 0.651855H25.6012V23.0529H19.841V0.651855Z" fill="black"/>
<path d="M26.7649 15.0818C26.7649 10.0197 30.0233 6.64502 35.0853 6.64502C40.1474 6.64502 43.3476 10.0779 43.3476 15.0818C43.3476 20.1439 40.1474 23.5186 35.0853 23.5186C30.0233 23.5186 26.7649 20.1439 26.7649 15.0818ZM37.5873 15.0818C37.5873 12.2889 36.7145 10.5434 34.969 10.5434C33.2234 10.5434 32.4088 12.2889 32.4088 15.0818C32.4088 17.8747 33.2234 19.6784 34.969 19.6784C36.7145 19.6202 37.5873 17.8747 37.5873 15.0818Z" fill="black"/>
<path d="M43.9876 15.0818C43.9876 10.0197 47.2459 6.64502 52.308 6.64502C57.3701 6.64502 60.512 10.0197 60.512 15.0818C60.512 20.1439 57.3119 23.5186 52.2498 23.5186C47.2459 23.5186 43.9876 20.1439 43.9876 15.0818ZM54.8099 15.0818C54.8099 12.2889 53.9372 10.5434 52.1916 10.5434C50.4461 10.5434 49.6315 12.2889 49.6315 15.0818C49.6315 17.8747 50.4461 19.6784 52.1916 19.6784C53.9372 19.6202 54.8099 17.8747 54.8099 15.0818Z" fill="black"/>
<path d="M61.6757 7.05239H67.0287V9.43796H67.1451C68.1924 7.57605 69.647 6.58691 71.9744 6.58691C74.0109 6.58691 75.5237 7.57605 76.2801 9.32159H76.3964C77.6765 7.22695 79.3639 6.58691 81.3421 6.58691C85.0659 6.58691 86.6369 9.32159 86.6369 12.9872V22.995H81.0512V13.9764C81.0512 12.3472 80.5275 11.2999 79.1311 11.2999C77.7347 11.2999 77.0365 12.5799 77.0365 14.3255V22.995H71.4507V13.9764C71.4507 12.3472 70.9271 11.2999 69.5306 11.2999C68.1342 11.2999 67.436 12.5799 67.436 14.3255V22.995H61.6757V7.05239Z" fill="black"/>
<path d="M93.6773 20.9001H93.6191V22.9948H88.2661V0.651855H93.8518V8.68134H93.9682C95.0155 7.2849 96.4701 6.5285 98.5066 6.5285C102.521 6.5285 104.849 10.136 104.849 14.9653C104.849 20.3764 102.347 23.5184 98.1575 23.5184C96.412 23.5184 94.6082 22.7038 93.6773 20.9001ZM99.0884 14.9071C99.0884 12.347 98.1575 10.6596 96.4701 10.6596C94.7246 10.6596 93.6773 12.347 93.6773 14.9071C93.6773 17.4672 94.7828 19.1546 96.4701 19.1546C98.1575 19.1546 99.0884 17.5254 99.0884 14.9071Z" fill="black"/>
<path d="M105.489 15.0237C105.489 10.0198 108.805 6.58691 113.576 6.58691C115.962 6.58691 117.766 7.34331 119.162 8.68156C121.024 10.4853 121.839 13.2781 121.78 16.5365H111.074C111.307 18.5148 112.238 19.5621 113.926 19.5621C114.915 19.5621 115.787 19.0966 116.137 18.0493H121.548C120.617 21.7149 117.766 23.5186 113.751 23.5186C108.805 23.4605 105.489 20.0858 105.489 15.0237ZM111.074 13.3363H116.195C116.078 11.4162 115.031 10.4271 113.693 10.4271C112.122 10.3689 111.249 11.4744 111.074 13.3363Z" fill="black"/>
<path d="M128.123 9.78691H128.239C129.403 7.57589 130.915 6.70312 132.836 6.70312C133.301 6.70312 133.592 6.76131 133.766 6.87768V11.7652H133.65C130.334 11.1833 128.414 12.7543 128.414 16.3618V23.053H122.77V7.05223H128.123V9.78691Z" fill="black"/>
<path d="M134.348 23.0528H139.76C139.992 23.751 140.69 24.391 142.029 24.391C143.832 24.391 144.472 23.2855 144.472 21.5981V20.4344H144.356C143.483 21.4818 142.261 22.2382 140.516 22.2382C137.083 22.2382 134.057 19.678 134.057 14.6742C134.057 10.0776 136.501 6.52832 140.225 6.52832C142.378 6.52832 143.658 7.40109 144.531 8.73934H144.647V6.9938H150V20.8417C150 23.4019 149.127 25.3801 147.789 26.5438C146.393 27.7657 144.414 28.2894 142.145 28.2894C137.839 28.3476 134.872 26.602 134.348 23.0528ZM144.705 14.4414C144.705 12.4632 143.774 10.834 142.145 10.834C140.574 10.834 139.585 12.2304 139.585 14.4414C139.585 16.5943 140.574 18.1071 142.145 18.1071C143.716 18.1071 144.705 16.5361 144.705 14.4414Z" fill="black"/>
</g>
</mask>
<g mask="url(#mask0_409_770)">
<rect x="-29.25" y="-58.5981" width="208.5" height="144.75" fill="#B0B0B0"/>
</g>
<defs>
<clipPath id="clip0_409_770">
<rect width="150" height="27.6959" fill="white" transform="translate(0 0.651855)"/>
</clipPath>
</defs>
</svg>
