<svg width="32" height="32" viewBox="0 0 32 32" fill="none" xmlns="http://www.w3.org/2000/svg">
<path d="M13.4934 11.8685C13.741 11.7034 14.047 11.5558 14.4 11.4416L14.4 14.1583C14.047 14.0441 13.741 13.8965 13.4934 13.7314C12.9108 13.343 12.8 12.9822 12.8 12.8C12.8 12.6177 12.9108 12.2569 13.4934 11.8685Z" fill="#EA5D3E"/>
<path d="M17.6 20.5583L17.6 17.8416C17.9529 17.9558 18.2589 18.1034 18.5066 18.2685C19.0892 18.6569 19.2 19.0177 19.2 19.2C19.2 19.3822 19.0892 19.743 18.5066 20.1314C18.2589 20.2965 17.953 20.4441 17.6 20.5583Z" fill="#EA5D3E"/>
<path fill-rule="evenodd" clip-rule="evenodd" d="M16 28.7999C23.0692 28.7999 28.7999 23.0692 28.7999 16C28.7999 8.93071 23.0692 3.19995 16 3.19995C8.93071 3.19995 3.19995 8.93071 3.19995 16C3.19995 23.0692 8.93071 28.7999 16 28.7999ZM17.6 7.99995C17.6 7.1163 16.8836 6.39995 16 6.39995C15.1163 6.39995 14.4 7.1163 14.4 7.99995V8.14714C13.4054 8.33391 12.4855 8.69446 11.7183 9.20593C10.5636 9.97572 9.59995 11.2149 9.59995 12.8C9.59995 14.385 10.5636 15.6242 11.7183 16.394C12.4855 16.9054 13.4054 17.266 14.4 17.4528L14.4 20.5587C13.7744 20.3556 13.3106 20.051 13.0506 19.7513C12.4715 19.0839 11.461 19.0123 10.7935 19.5915C10.1261 20.1706 10.0545 21.1811 10.6337 21.8486C11.5336 22.8858 12.8952 23.5693 14.4 23.8522L14.4 23.9999C14.3999 24.8836 15.1163 25.5999 15.9999 25.5999C16.8836 25.6 17.5999 24.8836 17.6 24L17.6 23.8528C18.5945 23.666 19.5144 23.3054 20.2816 22.794C21.4363 22.0242 22.4 20.785 22.4 19.2C22.4 17.6149 21.4363 16.3757 20.2816 15.6059C19.5144 15.0945 18.5945 14.7339 17.6 14.5471L17.6 11.4412C18.2256 11.6443 18.6893 11.9489 18.9493 12.2486C19.5284 12.916 20.539 12.9876 21.2064 12.4084C21.8738 11.8293 21.9454 10.8188 21.3663 10.1513C20.4663 9.11414 19.1047 8.43059 17.6 8.14772V7.99995Z" fill="#EA5D3E"/>
</svg>
