<svg width="150" height="23" viewBox="0 0 150 23" fill="none" xmlns="http://www.w3.org/2000/svg">
<g clip-path="url(#clip0_409_811)">
<path d="M131.949 3.61888C131.949 2.1443 132.407 1.63582 133.169 1.63582C133.932 1.63582 134.542 1.94091 135.254 3.61888L139.576 13.4324V19.6358C139.576 21.1104 138.966 21.5172 137.288 21.7206V22.1274H145.271V21.7206C143.542 21.5172 142.983 21.0596 142.983 19.6358V13.4324L147.153 3.97481C147.966 2.1443 148.78 1.73752 150 1.53413V1.12735H144.153V1.53413C146.136 1.73752 146.847 2.29684 146.288 3.61888L142.627 12.0087L138.864 3.41549C138.356 2.24599 138.661 1.89006 140.847 1.58498V1.1782H128.288V1.58498C130.271 1.89006 130.881 2.24599 130.881 3.66972V15.1612L121.678 1.1782H117.153V1.58498C118.627 1.78837 119.085 2.24599 119.085 3.66972V19.6867C119.085 21.1613 118.678 21.6697 118.169 21.6697C117.712 21.6697 117.458 21.4663 116.797 19.6867L109.983 1.0765H109.576L103.017 18.8731C102.305 20.8562 101.186 21.5172 100.068 21.7714V22.1782H106.068V21.7714C103.983 21.568 103.322 20.7545 103.78 19.4324L105.254 15.3646H111.458L112.881 19.1782C113.492 20.907 113.136 21.4155 111.356 21.7206V22.1274H122.746V21.7206C120.763 21.4155 120.153 21.0596 120.153 19.6358V5.29684L131.288 22.1782H131.949V3.61888ZM51.661 11.6019C51.661 5.09345 54.7627 1.68667 58.3729 1.68667C60.5085 1.68667 61.8814 2.1443 62.6949 3.00871C63.3051 3.61888 63.7627 4.48328 64.2712 5.85616H64.678V1.48328C62.5932 1.0765 60.7119 0.822266 58.8305 0.822266C53.3898 0.822266 47.7458 4.33074 47.7458 11.6019C47.7458 18.8731 53.3898 22.3816 58.4746 22.3816C60.7119 22.3816 62.6949 22.0257 64.5763 21.4663L65.1864 17.3477L64.8305 17.246C64.3729 18.1104 63.8136 18.8731 63.2034 19.5341C61.8814 20.8562 60.1017 21.568 58.322 21.568C54.8644 21.5172 51.661 18.2121 51.661 11.6019ZM96.7627 12.2121C96.3051 12.2121 95.6949 12.1612 95.0847 12.0596V1.89006H96.7627C99.5593 1.89006 100.78 3.36464 100.78 7.02566C100.78 10.7375 99.5085 12.2121 96.7627 12.2121ZM31.4237 1.12735V6.16125H31.8305C32.4407 2.95786 33.7119 1.94091 35.8475 1.94091H36.8644V19.6358C36.8644 21.1104 36.2542 21.5172 34.5763 21.7206V22.1274H42.5593V21.7206C40.8305 21.5172 40.2712 21.0596 40.2712 19.6358V1.89006H41.2881C43.4237 1.89006 44.6949 2.90701 45.3051 6.1104H45.7119V1.0765H31.4237V1.12735ZM25.0678 22.3816C28.5254 22.3816 32.1864 20.3985 32.1864 16.3307C32.1864 13.9409 30.9153 11.9579 28.678 10.7375L24.7119 8.55108C22.6271 7.38159 22.0169 6.31379 22.0169 4.78837C22.0169 3.05955 23.2881 1.68667 25.678 1.68667C26.8475 1.68667 27.7119 1.99176 28.4237 2.65277C29.0339 3.26294 29.6441 4.27989 30.2034 6.1104H30.5593V1.48328C29.1356 1.0765 27.661 0.822266 25.9322 0.822266C22.5254 0.822266 19.9831 2.95786 19.9831 6.56803C19.9831 8.85616 21.2542 10.9409 23.339 12.1612L27 14.1951C29.0847 15.3646 29.7458 16.4833 29.7458 18.1613C29.7458 20.1443 27.7119 21.568 25.4746 21.568C24 21.568 22.7797 21.0596 21.9153 20.1951C21.3559 19.6358 20.7458 18.7714 20.339 17.6528H22.7288V17.246C22.0678 17.0935 21.661 16.9918 21.1017 15.6697L16.4237 4.53413H16.0169L11.4407 15.4155C10.8305 16.8901 10.4237 17.1443 9.71186 17.246V17.6528H13.7797V17.246C12.3051 17.0935 11.8983 16.3816 12.2542 15.4663L12.9661 13.7375H17.0847L18 15.8731C18.4068 16.8392 17.7966 17.0935 16.322 17.1951V17.6019H19.5763V21.6189C21.2034 22.0765 23.2881 22.3816 25.0678 22.3816ZM76.7288 22.1782L82.7797 5.34769L83.2373 19.6867C83.2881 21.1104 82.7288 21.5172 81 21.7206V22.1274H97.678V21.7206C95.6949 21.4155 95.0847 21.0596 95.0847 19.6358V12.8731C95.7458 12.9748 96.4068 13.0257 96.9153 13.0257C100.932 13.0257 104.39 11.5511 104.39 7.0765C104.39 2.60193 100.932 1.12735 96.9153 1.12735H89.7458V1.53413C91.2203 1.73752 91.678 2.19515 91.678 3.61888V19.6358C91.678 21.1104 91.0678 21.7206 89.3898 21.7206H89.339C87.5593 21.7206 86.7966 21.0596 86.7458 19.6867L86.1356 3.66972C86.0847 2.19515 86.5932 1.73752 88.1695 1.53413V1.12735H83.2373L77.8475 16.229L72.4576 1.12735H67.1695V1.53413C68.7458 1.73752 69.2542 2.24599 69.2034 3.66972L68.6441 19.0257C68.5932 20.5511 67.7797 21.4663 66.3051 21.7206V22.1274H71.8983V21.7206C70.4746 21.5172 69.661 20.6019 69.7119 19.0257L70.1695 5.0426L76.322 22.1274L76.7288 22.1782ZM60.5085 17.7545C63.2034 17.7545 66.661 15.3646 66.661 11.6019C66.661 7.89006 63.2542 5.44938 60.5085 5.44938C57.8136 5.44938 54.3559 7.83922 54.3559 11.6019C54.3559 15.3138 57.7627 17.7545 60.5085 17.7545ZM60.5085 6.31379C62.2373 6.31379 63.4068 7.73752 63.4068 11.6019C63.4068 15.5172 62.1864 16.8901 60.5085 16.8901C58.7797 16.8901 57.6102 15.4663 57.6102 11.6019C57.6102 7.68667 58.7797 6.31379 60.5085 6.31379ZM111.203 14.5002H105.559L108.356 6.77142L111.203 14.5002ZM16.8305 12.924H13.3729L15.1017 8.70362L16.8305 12.924ZM10.2203 13.9918H10.6271V7.68667H10.2203C9.55932 9.92396 8.89831 10.4324 7.67797 10.4324H5.33898V1.89006H9.05085C11.1864 1.89006 12.4576 2.90701 13.0678 6.1104H13.4746V1.0765H0V1.48328C1.47458 1.68667 1.9322 2.1443 1.9322 3.56803V19.585C1.9322 21.0596 1.47458 21.4663 0 21.6697V22.0765H7.9322V21.6697C5.94915 21.3646 5.33898 21.0087 5.33898 19.585V11.1951H7.67797C8.84746 11.246 9.55932 11.7545 10.2203 13.9918Z" fill="#B0B0B0"/>
</g>
<defs>
<clipPath id="clip0_409_811">
<rect width="150" height="21.3559" fill="white" transform="translate(0 0.822266)"/>
</clipPath>
</defs>
</svg>
