<svg width="32" height="32" viewBox="0 0 32 32" fill="none" xmlns="http://www.w3.org/2000/svg">
<path fill-rule="evenodd" clip-rule="evenodd" d="M7.99995 7.99995C7.99995 5.34898 10.149 3.19995 12.8 3.19995C14.0293 3.19995 15.1507 3.66212 16 4.42218C16.8492 3.66212 17.9706 3.19995 19.2 3.19995C21.8509 3.19995 24 5.34898 24 7.99995C24 8.56097 23.9037 9.0995 23.7268 9.59995H25.5999C27.3673 9.59995 28.7999 11.0326 28.7999 12.8C28.7999 14.5673 27.3673 16 25.5999 16H17.6V14.4C17.6 13.5163 16.8836 12.8 16 12.8C15.1163 12.8 14.4 13.5163 14.4 14.4V16H6.39995C4.63264 16 3.19995 14.5673 3.19995 12.8C3.19995 11.0326 4.63264 9.59995 6.39995 9.59995H8.27308C8.0962 9.0995 7.99995 8.56097 7.99995 7.99995ZM14.4 9.59995V7.99995C14.4 7.1163 13.6836 6.39995 12.8 6.39995C11.9163 6.39995 11.2 7.1163 11.2 7.99995C11.2 8.88361 11.9163 9.59995 12.8 9.59995H14.4ZM19.2 9.59995C20.0836 9.59995 20.7999 8.88361 20.7999 7.99995C20.7999 7.1163 20.0836 6.39995 19.2 6.39995C18.3163 6.39995 17.6 7.1163 17.6 7.99995V9.59995H19.2Z" fill="#EA5D3E"/>
<path d="M14.4 17.6H4.79995V25.5999C4.79995 27.3673 6.23264 28.7999 7.99995 28.7999H14.4V17.6Z" fill="#EA5D3E"/>
<path d="M17.6 28.7999H24C25.7673 28.7999 27.1999 27.3673 27.1999 25.5999V17.6H17.6V28.7999Z" fill="#EA5D3E"/>
</svg>
