<svg width="32" height="32" viewBox="0 0 32 32" fill="none" xmlns="http://www.w3.org/2000/svg">
<path d="M14.4 4.79995C14.4 3.9163 15.1164 3.19995 16 3.19995C16.8837 3.19995 17.6 3.9163 17.6 4.79995V13.6C17.6 14.0418 17.9582 14.4 18.4001 14.4C18.8419 14.4 19.2001 14.0418 19.2001 13.6V6.39995C19.2001 5.5163 19.9164 4.79995 20.8001 4.79995C21.6837 4.79995 22.4001 5.5163 22.4001 6.39995V13.6C22.4001 14.0418 22.7582 14.4 23.2001 14.4C23.6419 14.4 24 14.0418 24 13.6V9.59995C24 8.7163 24.7164 7.99995 25.6 7.99995C26.4837 7.99995 27.2001 8.7163 27.2001 9.59995V17.6C27.2001 23.7855 22.1856 28.7999 16 28.7999C9.81446 28.7999 4.80005 23.7855 4.80005 17.6V14.4C4.80005 13.5163 5.51639 12.8 6.40005 12.8C7.2837 12.8 8.00005 13.5163 8.00005 14.4V18.4C8.00005 18.8418 8.35822 19.2 8.80005 19.2C9.24188 19.2 9.60005 18.8418 9.60005 18.4V6.39995C9.60005 5.5163 10.3164 4.79995 11.2 4.79995C12.0837 4.79995 12.8 5.5163 12.8 6.39995V13.6C12.8 14.0418 13.1582 14.4 13.6 14.4C14.0419 14.4 14.4 14.0418 14.4 13.6V4.79995Z" fill="#EA5D3E"/>
</svg>
