<svg width="32" height="32" viewBox="0 0 32 32" fill="none" xmlns="http://www.w3.org/2000/svg">
<path d="M17.1313 3.66858C16.5065 3.04374 15.4934 3.04374 14.8686 3.66858L3.66858 14.8686C3.04374 15.4934 3.04374 16.5065 3.66858 17.1313C4.29342 17.7562 5.30648 17.7562 5.93132 17.1313L6.39995 16.6627V27.1999C6.39995 28.0836 7.1163 28.7999 7.99995 28.7999H11.2C12.0836 28.7999 12.8 28.0836 12.8 27.1999V24C12.8 23.1163 13.5163 22.4 14.4 22.4H17.6C18.4836 22.4 19.2 23.1163 19.2 24V27.1999C19.2 28.0836 19.9163 28.7999 20.7999 28.7999H24C24.8836 28.7999 25.5999 28.0836 25.5999 27.1999V16.6627L26.0686 17.1313C26.6934 17.7562 27.7065 17.7562 28.3313 17.1313C28.9562 16.5065 28.9562 15.4934 28.3313 14.8686L17.1313 3.66858Z" fill="#EA5D3E"/>
</svg>
