<svg width="150" height="19" viewBox="0 0 150 19" fill="none" xmlns="http://www.w3.org/2000/svg">
<mask id="mask0_409_755" style="mask-type:alpha" maskUnits="userSpaceOnUse" x="0" y="0" width="150" height="19">
<g clip-path="url(#clip0_409_755)">
<path d="M19.3931 17.9156H24.8715L27.8086 1.10547H22.3302L21.2471 7.12546H16.4977L17.5809 1.10547H12.1025L9.1654 17.9156H14.6438L15.7478 11.6248H20.4972L19.3931 17.9156Z" fill="white"/>
<path d="M30.9124 1.08479L29.2459 10.4377C29.1001 11.1667 29.0376 11.875 29.0376 12.5415C29.0376 17.4992 33.3704 18.2491 35.9742 18.2491C41.4317 18.2491 43.7856 16.4368 44.6396 11.5417L46.4727 1.06396H40.9943L39.432 9.85441C38.9321 12.604 38.578 14.0413 36.5366 14.0413C35.2034 14.0413 34.5577 13.3331 34.5577 11.875C34.5577 11.3125 34.641 10.6251 34.8077 9.77108L36.3908 1.06396H30.9124V1.08479Z" fill="white"/>
<path d="M75.427 17.9155H80.9054L81.6762 13.5827H84.2591C89.0293 13.5827 91.6748 10.9998 91.6748 6.29208C91.6748 2.98004 89.3834 1.08447 85.3631 1.08447H78.3641L75.427 17.9155ZM83.9675 9.43748H82.3844L83.1135 5.4797H84.5924C85.8006 5.4797 86.4463 6.08378 86.4463 7.18779C86.4463 8.58343 85.509 9.43748 83.9675 9.43748Z" fill="white"/>
<path d="M102.319 0.730469C96.3616 0.730469 92.7996 4.5841 92.7996 11.0624C92.7996 15.5617 95.6325 18.2697 100.382 18.2697C106.339 18.2697 109.901 14.4161 109.901 7.9378C109.922 3.4176 107.089 0.730469 102.319 0.730469ZM100.715 13.9161C99.2987 13.9161 98.4655 12.8954 98.4655 11.1873C98.4655 10.5416 98.528 9.97918 98.653 9.33344C99.0696 7.12541 99.7778 5.10486 102.007 5.10486C103.423 5.10486 104.256 6.12555 104.256 7.83365C104.256 8.47939 104.194 9.04181 104.069 9.68756C103.652 11.8748 102.944 13.9161 100.715 13.9161Z" fill="white"/>
<path d="M128.961 17.9156H134.44L136.606 5.60484H140.73L141.522 1.10547H127.503L126.712 5.60484H131.086L128.961 17.9156Z" fill="white"/>
<path d="M119.879 7.31289C118.15 6.7713 117.442 6.54216 117.442 5.72977C117.442 5.18818 117.796 4.54244 118.838 4.54244C119.608 4.54244 120.254 4.97988 120.504 5.62562L125.337 4.3133C124.774 1.93863 122.733 0.730469 119.213 0.730469C112.589 0.730469 112.068 5.16735 112.068 6.52133C112.068 9.27094 113.526 10.9582 116.692 11.8331C117.525 12.0622 118.484 12.3122 118.484 13.2287C118.484 13.9578 117.942 14.4161 117.005 14.4161C116.151 14.4161 115.234 13.9161 114.922 13.0413L110.151 14.3327C110.672 16.8324 113.026 18.2489 116.713 18.2489C119.525 18.2489 124.233 17.499 124.233 12.4163C124.254 9.87503 122.816 8.2086 119.879 7.31289Z" fill="black"/>
<path d="M6.10333 17.9156L9.06125 1.10547H7.62939e-06V17.9156H6.10333Z" fill="#0DBE98"/>
<path d="M143.876 1.10547L140.939 17.9156H150V1.10547H143.876Z" fill="#0DBE98"/>
<path d="M53.0135 12.9578H57.617L58.3669 8.72924H53.7634L54.2841 5.60468H60.7207L61.5123 1.08447H49.5973L46.6602 17.9155H52.1386L53.0135 12.9578Z" fill="black"/>
<path d="M67.3656 12.9578H71.99L72.7399 8.72924H68.1364L68.6571 5.60468H75.0937L75.8853 1.08447H63.9703L61.0332 17.9155H66.5116L67.3656 12.9578Z" fill="black"/>
</g>
</mask>
<g mask="url(#mask0_409_755)">
<rect x="-140.25" y="-88.5195" width="833.25" height="336.75" fill="#B0B0B0"/>
</g>
<defs>
<clipPath id="clip0_409_755">
<rect width="150" height="17.5392" fill="white" transform="translate(0 0.730469)"/>
</clipPath>
</defs>
</svg>
