<svg width="16" height="16" viewBox="0 0 16 16" fill="none" xmlns="http://www.w3.org/2000/svg">
<path fill-rule="evenodd" clip-rule="evenodd" d="M4.69602 0.0982936C3.39362 0.156694 2.26402 0.475094 1.35282 1.38309C0.438422 2.29509 0.124022 3.42869 0.0648219 4.71749C0.0288219 5.52149 -0.185578 11.5983 0.435222 13.1919C0.638303 13.7208 0.950585 14.201 1.35171 14.6012C1.75283 15.0014 2.23379 15.3125 2.76322 15.5143C3.27042 15.7111 3.84802 15.8439 4.69602 15.8831C11.784 16.2039 14.412 16.0295 15.52 13.1919C15.7168 12.6871 15.852 12.1095 15.8896 11.2639C16.2136 4.15749 15.8368 2.61669 14.6016 1.38309C13.6216 0.405494 12.4688 -0.260106 4.69602 0.0982936ZM4.76082 14.4535C3.98482 14.4191 3.56402 14.2895 3.28242 14.1807C2.93858 14.0505 2.62622 13.8489 2.36589 13.5893C2.10556 13.3296 1.90316 13.0178 1.77202 12.6743C1.29922 11.4631 1.45602 5.71189 1.49842 4.78149C1.53922 3.86949 1.72402 3.03749 2.36722 2.39349C3.16322 1.59989 4.19122 1.21029 11.1944 1.52629C12.108 1.56789 12.9432 1.75189 13.588 2.39349C14.384 3.18789 14.7792 4.22389 14.4576 11.1999C14.4224 11.9743 14.2928 12.3943 14.184 12.6743C13.4632 14.5207 11.8056 14.7767 4.76082 14.4535ZM11.272 3.75189C11.272 4.27749 11.6992 4.70389 12.2272 4.70389C12.7552 4.70389 13.1832 4.27749 13.1832 3.75189C13.1832 3.49835 13.0825 3.25518 12.9032 3.0759C12.7239 2.89661 12.4808 2.79589 12.2272 2.79589C11.9737 2.79589 11.7305 2.89661 11.5512 3.0759C11.3719 3.25518 11.2712 3.49835 11.2712 3.75189M3.89042 7.99029C3.89105 8.52647 3.9973 9.05727 4.20309 9.55238C4.40888 10.0475 4.71019 10.4972 5.08981 10.8759C5.46942 11.2545 5.91991 11.5547 6.41554 11.7592C6.91118 11.9637 7.44225 12.0686 7.97842 12.0679C8.51453 12.0685 9.04551 11.9636 9.54105 11.759C10.0366 11.5544 10.487 11.2542 10.8665 10.8756C11.2461 10.4969 11.5473 10.0473 11.753 9.5522C11.9588 9.05714 12.065 8.5264 12.0656 7.99029C12.065 7.45416 11.9587 6.92339 11.7529 6.42833C11.5471 5.93326 11.2458 5.48359 10.8662 5.10501C10.4866 4.72642 10.0361 4.42633 9.54044 4.22189C9.04481 4.01745 8.51376 3.91265 7.97762 3.91349C7.44148 3.91265 6.91043 4.01745 6.4148 4.22189C5.91918 4.42633 5.46868 4.72642 5.08905 5.10501C4.70943 5.48359 4.40811 5.93326 4.2023 6.42833C3.9965 6.92339 3.89105 7.45416 3.89042 7.99029ZM5.32482 7.99029C5.32588 7.28764 5.60592 6.61417 6.10337 6.11791C6.60082 5.62166 7.27497 5.34326 7.97762 5.34389C8.68041 5.34304 9.35477 5.62136 9.85239 6.11763C10.35 6.6139 10.6302 7.2875 10.6312 7.99029C10.6309 8.33842 10.562 8.68307 10.4285 9.00456C10.2949 9.32605 10.0994 9.61809 9.85296 9.86399C9.60654 10.1099 9.31409 10.3048 8.99232 10.4377C8.67054 10.5705 8.32575 10.6387 7.97762 10.6383C7.62957 10.6386 7.28486 10.5704 6.96318 10.4375C6.64149 10.3046 6.34914 10.1096 6.1028 9.86371C5.85647 9.61782 5.66098 9.32582 5.52749 9.00438C5.394 8.68293 5.32514 8.33835 5.32482 7.99029Z" fill="white"/>
</svg>
