<svg width="26" height="24" viewBox="0 0 26 24" fill="none" xmlns="http://www.w3.org/2000/svg">
<path d="M1.79962 12.5H4.99982C5.60726 12.5 6.1003 12.9922 6.1004 13.5996V21.5996C6.1004 22.2071 5.60733 22.7002 4.99982 22.7002H1.79962C1.19229 22.7 0.700012 22.207 0.700012 21.5996V13.5996C0.700118 12.9923 1.19235 12.5002 1.79962 12.5ZM11.4002 6.09961H14.6004C15.2077 6.09982 15.7 6.59281 15.7 7.2002V21.5996C15.7 22.207 15.2077 22.7 14.6004 22.7002H11.4002C10.7927 22.7002 10.2996 22.2071 10.2996 21.5996V7.2002C10.2996 6.59268 10.7927 6.09961 11.4002 6.09961ZM20.9998 1.2998H24.2C24.8074 1.29981 25.2994 1.79208 25.2996 2.39941V21.5996C25.2996 22.2071 24.8075 22.7002 24.2 22.7002H20.9998C20.3924 22.7001 19.9002 22.2071 19.9002 21.5996V2.39941C19.9004 1.79215 20.3925 1.29991 20.9998 1.2998Z" fill="#EA5D3E" stroke="#EA5D3E"/>
</svg>
