<svg width="30" height="25" viewBox="0 0 30 25" fill="none" xmlns="http://www.w3.org/2000/svg">
<path d="M19.8 5.5998C19.8 8.25077 17.651 10.3998 15 10.3998C12.349 10.3998 10.2 8.25077 10.2 5.5998C10.2 2.94884 12.349 0.799805 15 0.799805C17.651 0.799805 19.8 2.94884 19.8 5.5998Z" fill="#EA5D3E"/>
<path d="M27.8 8.7998C27.8 10.5671 26.3673 11.9998 24.6 11.9998C22.8327 11.9998 21.4 10.5671 21.4 8.7998C21.4 7.03249 22.8327 5.5998 24.6 5.5998C26.3673 5.5998 27.8 7.03249 27.8 8.7998Z" fill="#EA5D3E"/>
<path d="M21.4 19.9998C21.4 16.4652 18.5346 13.5998 15 13.5998C11.4654 13.5998 8.60001 16.4652 8.60001 19.9998V24.7998H21.4V19.9998Z" fill="#EA5D3E"/>
<path d="M8.60001 8.7998C8.60001 10.5671 7.16732 11.9998 5.40001 11.9998C3.63269 11.9998 2.20001 10.5671 2.20001 8.7998C2.20001 7.03249 3.63269 5.5998 5.40001 5.5998C7.16732 5.5998 8.60001 7.03249 8.60001 8.7998Z" fill="#EA5D3E"/>
<path d="M24.6 24.7998V19.9998C24.6 18.3132 24.165 16.7281 23.4012 15.3507C23.7844 15.2522 24.1861 15.1998 24.6 15.1998C27.251 15.1998 29.4 17.3488 29.4 19.9998V24.7998H24.6Z" fill="#EA5D3E"/>
<path d="M6.59883 15.3507C5.83496 16.7281 5.40001 18.3132 5.40001 19.9998V24.7998H0.600006V19.9998C0.600006 17.3488 2.74904 15.1998 5.40001 15.1998C5.81394 15.1998 6.21564 15.2522 6.59883 15.3507Z" fill="#EA5D3E"/>
</svg>
