<svg width="56" height="46" viewBox="0 0 56 46" fill="none" xmlns="http://www.w3.org/2000/svg">
<path d="M52.4339 31.0128H55.4389L51.5092 26.929C45.8844 21.073 38.1021 17.7598 29.9345 17.7598H29.0098H27.0065H26.0048C17.9142 17.7598 10.1319 21.073 4.43 26.929L0.500305 31.0128H3.50536C11.5959 31.0128 19.3782 27.6996 25.0801 21.8436L28.0081 18.8385C26.313 29.1636 11.5959 45.4988 11.5959 45.4988H28.0852H44.5745C44.5745 45.4988 30.0115 29.3947 28.1622 19.0697L30.8591 21.9206C36.4839 27.6996 44.2663 31.0128 52.4339 31.0128Z" fill="#EA5D3E"/>
<path d="M25.5423 11.7497L27.931 9.28401L30.3196 11.7497C34.9428 16.604 41.4152 19.3009 48.1188 19.3009H50.5845L47.3483 15.9105C42.7251 11.0562 36.2527 8.35938 29.5491 8.35938H28.7786H27.0834H26.3129C19.6093 8.35938 13.2139 11.0562 8.51368 15.9105L5.27747 19.3779H7.74315C14.4467 19.3779 20.9192 16.604 25.5423 11.7497Z" fill="#EA5D3E"/>
<path d="M26.0056 3.27341L27.932 1.27004L29.8583 3.27341C33.6339 7.2031 38.8735 9.43763 44.3442 9.43763H46.3476L43.7278 6.66373C39.9522 2.73404 34.7126 0.499512 29.2419 0.499512H28.6254H27.2385H26.6221C21.1513 0.499512 15.9117 2.73404 12.1362 6.66373L9.51636 9.43763H11.5197C16.9905 9.43763 22.2301 7.2031 26.0056 3.27341Z" fill="#EA5D3E"/>
</svg>
