<svg width="32" height="32" viewBox="0 0 32 32" fill="none" xmlns="http://www.w3.org/2000/svg">
<rect width="32" height="32" rx="16" fill="white"/>
<path d="M25.7735 19.2055H26.9756L25.4037 17.572C23.1537 15.2296 20.0408 13.9043 16.7738 13.9043H16.4039H15.6026H15.2019C11.9657 13.9043 8.85275 15.2296 6.57199 17.572L5.00011 19.2055H6.20214C9.43835 19.2055 12.5513 17.8802 14.832 15.5378L16.0032 14.3358C15.3252 18.4658 9.43835 24.9999 9.43835 24.9999H16.0341H22.6298C22.6298 24.9999 16.8046 18.5583 16.0649 14.4283L17.1436 15.5686C19.3936 17.8802 22.5065 19.2055 25.7735 19.2055Z" fill="#EA5D3E"/>
<path d="M15.0169 11.5002L15.9724 10.5139L16.9278 11.5002C18.7771 13.4419 21.3661 14.5206 24.0475 14.5206H25.0338L23.7393 13.1645C21.89 11.2228 19.3011 10.144 16.6196 10.144H16.3114H15.6334H15.3251C12.6437 10.144 10.0856 11.2228 8.20547 13.1645L6.91099 14.5515H7.89726C10.5787 14.5515 13.1677 13.4419 15.0169 11.5002Z" fill="#EA5D3E"/>
<path d="M15.2022 8.10956L15.9728 7.30821L16.7433 8.10956C18.2535 9.68144 20.3494 10.5752 22.5377 10.5752H23.339L22.2911 9.46569C20.7809 7.89381 18.685 7 16.4967 7H16.2502H15.6954H15.4488C13.2605 7 11.1647 7.89381 9.65445 9.46569L8.60653 10.5752H9.40788C11.5962 10.5752 13.692 9.68144 15.2022 8.10956Z" fill="#EA5D3E"/>
</svg>
