<svg width="32" height="32" viewBox="0 0 32 32" fill="none" xmlns="http://www.w3.org/2000/svg">
<path fill-rule="evenodd" clip-rule="evenodd" d="M19.2 11.2C18.3163 11.2 17.6 10.4837 17.6 9.6C17.6 8.71634 18.3163 8 19.2 8H27.1999C28.0836 8 28.7999 8.71634 28.7999 9.6V17.6C28.7999 18.4837 28.0836 19.2 27.1999 19.2C26.3163 19.2 25.5999 18.4837 25.5999 17.6V13.4627L18.7313 20.3314C18.1065 20.9562 17.0934 20.9562 16.4686 20.3314L12.8 16.6627L5.93132 23.5314C5.30648 24.1562 4.29342 24.1562 3.66858 23.5314C3.04374 22.9065 3.04374 21.8935 3.66858 21.2686L11.6686 13.2686C12.2934 12.6438 13.3065 12.6438 13.9313 13.2686L17.6 16.9373L23.3372 11.2H19.2Z" fill="#EA5D3E"/>
</svg>
