<svg width="19" height="16" viewBox="0 0 19 16" fill="none" xmlns="http://www.w3.org/2000/svg">
<g clip-path="url(#clip0_413_213)">
<path fill-rule="evenodd" clip-rule="evenodd" d="M19 1.894C18.2905 2.22056 17.5355 2.43506 16.7616 2.53C17.581 2.01885 18.1898 1.22535 18.4755 0.296C17.7126 0.765379 16.8744 1.09661 15.9988 1.2748C15.2899 0.49 14.2761 0 13.1539 0C11.0026 0 9.25735 1.8084 9.25735 4.0392C9.25735 4.3556 9.291 4.6632 9.3579 4.9592C6.118 4.79 3.24623 3.184 1.32248 0.7372C0.975478 1.35722 0.793796 2.05769 0.795229 2.77C0.795229 4.1708 1.48319 5.4072 2.52898 6.132C1.9085 6.11126 1.30234 5.93828 0.762771 5.628V5.6776C0.762771 7.6352 2.10663 9.2684 3.89104 9.638C3.55691 9.73373 3.21115 9.78166 2.86385 9.7804C2.61749 9.78069 2.37169 9.75658 2.12998 9.7084C2.62635 11.3124 4.06481 12.4812 5.77125 12.5124C4.43729 13.5964 2.75579 14.2424 0.930208 14.2424C0.615521 14.2424 0.304792 14.2236 0 14.1868C1.72544 15.3308 3.77506 16 5.9755 16C13.146 16 17.0664 9.846 17.0664 4.508C17.0664 4.3324 17.0628 4.1568 17.0561 3.9848C17.8222 3.41055 18.4806 2.70247 19 1.894Z" fill="white"/>
</g>
<defs>
<clipPath id="clip0_413_213">
<rect width="19" height="16" fill="white"/>
</clipPath>
</defs>
</svg>
