<svg width="145" height="31" viewBox="0 0 145 31" fill="none" xmlns="http://www.w3.org/2000/svg">
<g clip-path="url(#clip0_409_796)">
<path d="M30 0.5H0V30.5H30V0.5Z" fill="#B0B0B0"/>
<path d="M14 17.4998L8.79999 7.7998H11.2L14.2 13.8998C14.2 13.9998 14.3 14.0998 14.4 14.1998C14.5 14.2998 14.5 14.3998 14.6 14.5998L14.7 14.6998V14.7998C14.8 14.9998 14.8 15.0998 14.9 15.2998C15 15.3998 15 15.5998 15.1 15.6998C15.2 15.3998 15.4 15.1998 15.5 14.7998C15.6 14.4998 15.8 14.1998 16 13.8998L19 7.7998H21.2L16 17.5998V23.7998H14V17.4998Z" fill="white"/>
<path d="M43.7 6.2998C45.2 6.2998 46.5 6.6998 47.5 7.4998L46.5 8.6998C45.6 8.0998 44.7 7.6998 43.6 7.6998C41.9 7.6998 40.6 8.5998 39.9 10.2998C39.5 11.2998 39.3 12.5998 39.3 14.2998C39.3 15.5998 39.5 16.6998 39.8 17.4998C40.6 19.3998 41.9 20.2998 43.9 20.2998C45 20.2998 46 19.9998 46.9 19.2998L47.9 20.5998C46.6 21.3998 45.2 21.7998 43.7 21.7998C41.9 21.7998 40.4 21.0998 39.2 19.5998C38 18.1998 37.5 16.2998 37.5 13.9998C37.5 11.6998 38.1 9.8998 39.3 8.3998C40.4 7.0998 41.9 6.2998 43.7 6.2998Z" fill="#B0B0B0"/>
<path d="M49.4 16.1999C49.4 14.3999 49.8 12.9999 50.7 11.9999C51.6 10.9999 52.7 10.3999 54.1 10.3999C55.7 10.3999 57 10.9999 57.9 12.2999C58.6 13.2999 58.9 14.6999 58.9 16.3999C58.9 18.3999 58.3 19.9999 57.2 20.9999C56.4 21.6999 55.4 22.0999 54.2 22.0999C52.7 22.0999 51.6 21.5999 50.7 20.4999C49.8 19.4999 49.4 17.9999 49.4 16.1999ZM56.4 13.2999C55.9 12.3999 55.2 11.8999 54.1 11.8999C53 11.8999 52.3 12.2999 51.8 13.0999C51.4 13.6999 51.3 14.6999 51.3 15.9999C51.3 17.6999 51.5 18.8999 52 19.5999C52.5 20.2999 53.2 20.6999 54.2 20.6999C55.4 20.6999 56.2 20.0999 56.6 18.9999C56.8 18.3999 56.9 17.5999 56.9 16.5999C57 15.0999 56.8 13.9999 56.4 13.2999Z" fill="#B0B0B0"/>
<path d="M62.1 13.4999C62.1 12.3999 62 11.4999 61.7 10.7999L63.4 10.3999C63.7 10.8999 63.8 11.4999 63.8 11.9999V12.0999C64.2 11.6999 64.6 11.2999 65.2 10.9999C65.9 10.5999 66.5 10.3999 67.1 10.3999C68 10.3999 68.8 10.7999 69.3 11.4999C69.4 11.6999 69.6 11.9999 69.7 12.1999C70.9 10.9999 72 10.3999 73.2 10.3999C74 10.3999 74.7 10.6999 75.2 11.1999C75.7 11.7999 76 12.4999 76 13.2999V21.5999H74.2V13.3999C74.2 12.2999 73.7 11.7999 72.8 11.7999C72.3 11.7999 71.7 11.9999 71.2 12.3999C71 12.5999 70.6 12.8999 70.1 13.2999L69.9 13.4999V21.5999H68V13.7999C68 13.0999 67.9 12.5999 67.7 12.3999C67.4 12.0999 67.1 11.9999 66.6 11.9999C65.8 11.9999 64.9 12.4999 63.8 13.4999V21.6999H62.1V13.4999Z" fill="#B0B0B0"/>
<path d="M79.1 5.9L80.9 5.5C81.1 6.3 81.2 7.2 81.2 8.3V10.8C81.2 11.4 81.2 11.8 81.2 12C82.2 11 83.3 10.5 84.4 10.5C85.7 10.5 86.8 11 87.5 12C88.3 13 88.7 14.4 88.7 16.1C88.7 17.9 88.3 19.3 87.5 20.4C86.7 21.5 85.6 22 84.3 22C83.7 22 83.2 21.9 82.6 21.6C82 21.3 81.6 21 81.3 20.6C81.2 21.1 81.1 21.5 81 21.8H79.3C79.5 21.3 79.6 20.4 79.6 19V8.5C79.5 7.3 79.4 6.4 79.1 5.9ZM82 12.7C81.7 12.9 81.4 13.2 81.2 13.5V19.2C81.9 20.1 82.8 20.5 83.9 20.5C84.8 20.5 85.5 20.2 85.9 19.5C86.4 18.7 86.7 17.6 86.7 16C86.7 14.6 86.5 13.6 86 13C85.6 12.4 84.9 12.1 83.9 12.1C83.3 12 82.6 12.2 82 12.7Z" fill="#B0B0B0"/>
<path d="M91.3 7.2999C91.3 6.8999 91.4 6.5999 91.7 6.2999C92 5.9999 92.3 5.8999 92.7 5.8999C93.1 5.8999 93.4 5.9999 93.7 6.2999C94 6.5999 94.1 6.8999 94.1 7.2999C94.1 7.6999 94 7.9999 93.7 8.2999C93.4 8.5999 93.1 8.6999 92.7 8.6999C92.3 8.6999 92 8.5999 91.7 8.2999C91.4 7.9999 91.3 7.6999 91.3 7.2999ZM91.7 21.6999V10.6999L93.5 10.3999V21.6999H91.7Z" fill="#B0B0B0"/>
<path d="M97.4 13.4999C97.4 12.6999 97.4 12.1999 97.3 11.9999C97.3 11.6999 97.1 11.3999 96.9 10.8999L98.6 10.3999C98.9 10.9999 99 11.4999 99 12.0999C100.1 10.9999 101.3 10.3999 102.5 10.3999C103.1 10.3999 103.6 10.4999 104.1 10.7999C104.6 11.0999 105 11.4999 105.2 11.9999C105.4 12.3999 105.5 12.7999 105.5 13.2999V21.6999H103.8V14.1999C103.8 13.2999 103.7 12.6999 103.4 12.3999C103.1 12.0999 102.7 11.8999 102.2 11.8999C101.8 11.8999 101.2 12.0999 100.6 12.3999C100 12.6999 99.5 13.0999 99.1 13.4999V21.6999H97.4V13.4999Z" fill="#B0B0B0"/>
<path d="M109.5 13.0999L108.6 11.8999C110.1 10.8999 111.6 10.3999 113.2 10.3999C114.8 10.3999 115.8 10.9999 116.3 12.0999C116.5 12.4999 116.5 13.0999 116.5 13.9999V14.5999L116.4 18.1999C116.4 18.2999 116.4 18.4999 116.4 18.6999C116.4 19.2999 116.4 19.6999 116.5 19.9999C116.6 20.3999 116.9 20.6999 117.3 20.8999L116.4 22.0999C115.6 21.7999 115.1 21.2999 114.9 20.4999C113.9 21.4999 112.8 21.9999 111.7 21.9999C110.6 21.9999 109.7 21.6999 109 21.0999C108.4 20.5999 108.1 19.7999 108.1 18.7999C108.1 17.4999 108.6 16.5999 109.6 15.8999C110.6 15.1999 112.1 14.8999 113.9 14.8999C114.2 14.8999 114.4 14.8999 114.7 14.8999V14.0999C114.7 13.1999 114.6 12.5999 114.3 12.3999C113.9 11.9999 113.5 11.7999 112.8 11.7999C112.2 11.7999 111.5 11.9999 110.7 12.2999C110.4 12.4999 110 12.7999 109.5 13.0999ZM114.8 18.9999L114.9 16.0999C114.4 16.0999 114.1 16.0999 114 16.0999C112.4 16.0999 111.4 16.3999 110.8 16.9999C110.4 17.3999 110.2 17.9999 110.2 18.7999C110.2 20.0999 110.8 20.7999 112.1 20.7999C113.3 20.6999 114.2 20.0999 114.8 18.9999Z" fill="#B0B0B0"/>
<path d="M122.2 10.7H125L124.5 12.1H122.2V19.2C122.2 19.8 122.3 20.2 122.5 20.5C122.7 20.7 123.1 20.9 123.6 20.9C124 20.9 124.4 20.8 124.7 20.7L124.9 21.8C124.3 22.1 123.7 22.2 123 22.2C121.3 22.2 120.5 21.4 120.5 19.7V12.1H119V10.7H120.4V10.5C120.4 10.3 120.5 9.5 120.6 8.2V7.9L122.4 7.5C122.2 8.7 122.2 9.8 122.2 10.7Z" fill="#B0B0B0"/>
<path d="M126.8 16.1999C126.8 14.3999 127.2 12.9999 128.1 11.9999C128.9 10.9999 130.1 10.3999 131.5 10.3999C133.1 10.3999 134.4 10.9999 135.3 12.2999C136 13.2999 136.3 14.6999 136.3 16.3999C136.3 18.3999 135.7 19.9999 134.6 20.9999C133.8 21.6999 132.8 22.0999 131.6 22.0999C130.1 22.0999 129 21.5999 128.1 20.4999C127.3 19.4999 126.8 17.9999 126.8 16.1999ZM133.9 13.2999C133.4 12.3999 132.7 11.8999 131.6 11.8999C130.5 11.8999 129.8 12.2999 129.3 13.0999C128.9 13.6999 128.8 14.6999 128.8 15.9999C128.8 17.6999 129 18.8999 129.5 19.5999C130 20.2999 130.7 20.6999 131.7 20.6999C132.9 20.6999 133.7 20.0999 134.1 18.9999C134.3 18.3999 134.4 17.5999 134.4 16.5999C134.4 15.0999 134.2 13.9999 133.9 13.2999Z" fill="#B0B0B0"/>
<path d="M139.6 13.2999C139.6 12.2999 139.5 11.4999 139.2 10.8999L140.9 10.3999C141.2 10.9999 141.3 11.4999 141.3 12.0999V12.2999C142.2 11.0999 143.2 10.4999 144.4 10.4999C144.6 10.4999 144.8 10.4999 145 10.5999L144.3 12.4999C144.1 12.3999 143.9 12.3999 143.8 12.3999C143.4 12.3999 142.9 12.4999 142.5 12.7999C142.1 13.0999 141.7 13.3999 141.5 13.7999C141.4 14.0999 141.3 14.4999 141.3 14.9999V21.8999H139.6V13.2999Z" fill="#B0B0B0"/>
</g>
<defs>
<clipPath id="clip0_409_796">
<rect width="145" height="30" fill="white" transform="translate(0 0.5)"/>
</clipPath>
</defs>
</svg>
